M48
;Layer_Color=9474304
;FILE_FORMAT=2:5
INCH,TZ
;TYPE=PLATED
T1F00S00C0.01181
T2F00S00C0.02953
T3F00S00C0.04134
%
T01
X318268Y311063
X341260Y289331
X354533Y297291
X362520Y293779
X362047Y287913
X362953Y281811
X379291Y281339
X382598Y287835
X376339Y294016
X380315Y304331
X386575Y306653
X391693Y291850
X410984Y297402
X411096Y301541
Y301738
X442837Y306134
X444724Y295354
X442362Y281181
X459961Y281063
X464961Y306142
X361642Y303746
X361929Y316220
X384921Y313071
X327638Y312953
X442480Y316417
T02
X450014Y306470
T03
X439435Y295892
M30
