G04*
G04 #@! TF.GenerationSoftware,Altium Limited,Altium Designer,20.2.6 (244)*
G04*
G04 Layer_Physical_Order=1*
G04 Layer_Color=255*
%FSLAX25Y25*%
%MOIN*%
G70*
G04*
G04 #@! TF.SameCoordinates,1782C56F-5B0B-48C2-A17B-6D9890C7136C*
G04*
G04*
G04 #@! TF.FilePolarity,Positive*
G04*
G01*
G75*
%ADD11C,0.00500*%
%ADD19R,0.13780X0.01260*%
%ADD20P,0.05568X4X90.0*%
%ADD21R,0.03937X0.03937*%
%ADD22R,0.03937X0.03937*%
%ADD23C,0.02362*%
G36*
X440576Y326363D02*
Y321704D01*
X445513D01*
Y326363D01*
X468095D01*
X468095Y303609D01*
X463607D01*
Y298672D01*
X468095D01*
X468095Y276000D01*
X445513D01*
Y280578D01*
X440576D01*
Y276000D01*
X408984Y276000D01*
X408532Y276114D01*
X408532Y276500D01*
Y278055D01*
X408532Y278374D01*
X408532D01*
Y278555D01*
X408532D01*
Y280496D01*
X408532Y280815D01*
X408532Y281315D01*
Y282937D01*
X408532Y283256D01*
X408532Y283756D01*
X408532Y285850D01*
X408885Y286204D01*
X410906D01*
X411198Y286262D01*
X411446Y286428D01*
X412155Y287136D01*
X412321Y287385D01*
X412379Y287677D01*
X412379Y287677D01*
Y293701D01*
X412379Y293701D01*
X412321Y293993D01*
X412155Y294241D01*
X411525Y294871D01*
X411277Y295037D01*
X410984Y295095D01*
X408885D01*
X408532Y295449D01*
X408532Y295961D01*
X408532Y298083D01*
X409031Y298273D01*
X409375Y297929D01*
X409270Y297402D01*
X409401Y296746D01*
X409772Y296190D01*
X410328Y295818D01*
X410984Y295688D01*
X411640Y295818D01*
X412196Y296190D01*
X412568Y296746D01*
X412698Y297402D01*
X412568Y298058D01*
X412196Y298614D01*
X411640Y298985D01*
X410984Y299116D01*
X410457Y299011D01*
X409714Y299753D01*
X409466Y299919D01*
X409173Y299977D01*
X408885D01*
X408532Y300331D01*
Y300535D01*
X408885Y300889D01*
X409641D01*
X409883Y300526D01*
X410440Y300154D01*
X411096Y300024D01*
X411752Y300154D01*
X412308Y300526D01*
X412679Y301082D01*
X412810Y301738D01*
X412679Y302394D01*
X412308Y302950D01*
X411752Y303322D01*
X411096Y303452D01*
X410440Y303322D01*
X409883Y302950D01*
X409528Y302418D01*
X408885D01*
X408532Y302772D01*
X408532Y303284D01*
Y305224D01*
X408532D01*
Y305405D01*
X408532D01*
Y307346D01*
X408532Y307665D01*
X408532Y308165D01*
Y310106D01*
X393752D01*
Y309741D01*
X389333D01*
X386530Y312543D01*
X386635Y313071D01*
X386505Y313727D01*
X386133Y314283D01*
X385577Y314654D01*
X384921Y314785D01*
X384265Y314654D01*
X383709Y314283D01*
X383338Y313727D01*
X383207Y313071D01*
X383338Y312415D01*
X383709Y311859D01*
X384265Y311487D01*
X384921Y311357D01*
X385449Y311462D01*
X388475Y308436D01*
X388723Y308270D01*
X389016Y308212D01*
X389016Y308212D01*
X393398D01*
X393520Y308090D01*
X393606Y307907D01*
X393334Y307418D01*
X388086D01*
X387787Y307866D01*
X387231Y308237D01*
X386575Y308368D01*
X385919Y308237D01*
X385363Y307866D01*
X384991Y307310D01*
X384861Y306653D01*
X384991Y305998D01*
X385260Y305595D01*
X385049Y305095D01*
X381826D01*
X381527Y305543D01*
X380971Y305914D01*
X380315Y306045D01*
X379659Y305914D01*
X379103Y305543D01*
X378731Y304987D01*
X378601Y304331D01*
X378731Y303675D01*
X379103Y303119D01*
X379403Y302918D01*
X379251Y302418D01*
X364214D01*
X363278Y303355D01*
X363356Y303746D01*
X363226Y304402D01*
X362854Y304958D01*
X362298Y305330D01*
X361642Y305460D01*
X360986Y305330D01*
X360430Y304958D01*
X360058Y304402D01*
X359928Y303746D01*
X360058Y303090D01*
X360430Y302534D01*
X360986Y302163D01*
X361642Y302032D01*
X362298Y302163D01*
X362303Y302166D01*
X363357Y301113D01*
X363605Y300947D01*
X363898Y300889D01*
X393398D01*
X393752Y300535D01*
Y300291D01*
X393398Y299938D01*
X362049D01*
X360698Y301289D01*
X360450Y301454D01*
X360157Y301513D01*
X352677D01*
X352384Y301454D01*
X352136Y301289D01*
X341788Y290940D01*
X341260Y291045D01*
X340604Y290914D01*
X340048Y290543D01*
X339676Y289987D01*
X339546Y289331D01*
X339676Y288675D01*
X340048Y288119D01*
X340604Y287747D01*
X341260Y287617D01*
X341916Y287747D01*
X342472Y288119D01*
X342843Y288675D01*
X342974Y289331D01*
X342869Y289858D01*
X352994Y299983D01*
X359841D01*
X361192Y298633D01*
X361192Y298633D01*
X361440Y298467D01*
X361732Y298409D01*
X393426D01*
X393752Y298083D01*
Y297890D01*
X393398Y297536D01*
X356198D01*
X356116Y297947D01*
X355745Y298503D01*
X355188Y298875D01*
X354533Y299005D01*
X353877Y298875D01*
X353321Y298503D01*
X352949Y297947D01*
X352819Y297291D01*
X352949Y296635D01*
X353321Y296079D01*
X353877Y295708D01*
X354533Y295577D01*
X355188Y295708D01*
X355636Y296007D01*
X375393D01*
X375544Y295507D01*
X375127Y295228D01*
X374828Y294780D01*
X363873D01*
X363732Y294991D01*
X363176Y295363D01*
X362520Y295494D01*
X361864Y295363D01*
X361308Y294991D01*
X360936Y294436D01*
X360806Y293779D01*
X360936Y293124D01*
X361308Y292567D01*
X361864Y292196D01*
X362520Y292066D01*
X363176Y292196D01*
X363732Y292567D01*
X364103Y293124D01*
X364129Y293251D01*
X374828D01*
X375127Y292804D01*
X375683Y292432D01*
X376339Y292302D01*
X376994Y292432D01*
X377551Y292804D01*
X377850Y293251D01*
X382557D01*
X389381Y286428D01*
X389629Y286262D01*
X389921Y286204D01*
X389921Y286204D01*
X393426D01*
X393752Y285878D01*
Y285685D01*
X393398Y285332D01*
X386183D01*
X384208Y287307D01*
X384313Y287835D01*
X384182Y288491D01*
X383810Y289047D01*
X383254Y289418D01*
X382598Y289549D01*
X381943Y289418D01*
X381386Y289047D01*
X381015Y288491D01*
X380884Y287835D01*
X381015Y287179D01*
X381386Y286623D01*
X381943Y286251D01*
X382598Y286121D01*
X383126Y286226D01*
X385325Y284026D01*
X385574Y283860D01*
X385866Y283802D01*
X393398D01*
X393752Y283449D01*
Y283244D01*
X393398Y282891D01*
X383584D01*
X378021Y288454D01*
X377773Y288620D01*
X377480Y288678D01*
X363558D01*
X363259Y289125D01*
X362703Y289497D01*
X362047Y289627D01*
X361391Y289497D01*
X360835Y289125D01*
X360464Y288569D01*
X360333Y287913D01*
X360464Y287258D01*
X360835Y286701D01*
X361391Y286330D01*
X362047Y286199D01*
X362703Y286330D01*
X363259Y286701D01*
X363558Y287149D01*
X377164D01*
X382727Y281585D01*
X382727Y281585D01*
X382975Y281419D01*
X383268Y281361D01*
X393398D01*
X393752Y281008D01*
Y280803D01*
X393398Y280450D01*
X381262D01*
X380900Y280811D01*
X381005Y281339D01*
X380875Y281995D01*
X380503Y282551D01*
X379947Y282922D01*
X379291Y283053D01*
X378635Y282922D01*
X378079Y282551D01*
X377708Y281995D01*
X377577Y281339D01*
X377708Y280683D01*
X378079Y280127D01*
X378635Y279755D01*
X379291Y279625D01*
X379819Y279730D01*
X380404Y279144D01*
X380471Y279099D01*
X380320Y278599D01*
X365238D01*
X363960Y279877D01*
X364013Y280498D01*
X364165Y280599D01*
X364536Y281155D01*
X364667Y281811D01*
X364536Y282467D01*
X364165Y283023D01*
X363609Y283395D01*
X362953Y283525D01*
X362297Y283395D01*
X361741Y283023D01*
X361369Y282467D01*
X361239Y281811D01*
X361369Y281155D01*
X361741Y280599D01*
X362188Y280300D01*
Y279803D01*
X362246Y279510D01*
X362412Y279262D01*
X364381Y277294D01*
X364629Y277128D01*
X364921Y277070D01*
X393752D01*
Y276500D01*
X393299Y276000D01*
X291748Y276000D01*
X291748Y326363D01*
X440576Y326363D01*
D02*
G37*
G36*
X393752Y295653D02*
X393752Y295142D01*
X393752Y293008D01*
X393398Y292654D01*
X391732D01*
X391732Y292654D01*
X391440Y292596D01*
X391192Y292430D01*
X391152Y292391D01*
X390986Y292143D01*
X390928Y291850D01*
X390986Y291558D01*
X391152Y291310D01*
X391400Y291144D01*
X391693Y291086D01*
X391891Y291125D01*
X393398D01*
X393752Y290772D01*
X393752Y290260D01*
Y288638D01*
X393752Y288319D01*
Y288087D01*
X393398Y287733D01*
X390238D01*
X383415Y294556D01*
X383167Y294722D01*
X382874Y294780D01*
X377850D01*
X377551Y295228D01*
X377133Y295507D01*
X377284Y296007D01*
X393398D01*
X393752Y295653D01*
D02*
G37*
%LPC*%
G36*
X434693Y323562D02*
X433124Y321994D01*
X434693Y320425D01*
X436261Y321994D01*
X434693Y323562D01*
D02*
G37*
G36*
X464055Y322816D02*
X463399Y322686D01*
X462843Y322314D01*
X462472Y321758D01*
X462341Y321102D01*
X462446Y320575D01*
X460480Y318609D01*
X456349D01*
X453623Y321335D01*
X450132Y317844D01*
X453623Y314353D01*
X456349Y317080D01*
X460797D01*
X461090Y317138D01*
X461338Y317303D01*
X463527Y319493D01*
X464055Y319388D01*
X464711Y319519D01*
X465267Y319890D01*
X465639Y320446D01*
X465769Y321102D01*
X465639Y321758D01*
X465267Y322314D01*
X464711Y322686D01*
X464055Y322816D01*
D02*
G37*
G36*
X432770Y321640D02*
X431202Y320071D01*
X432770Y318503D01*
X434339Y320071D01*
X432770Y321640D01*
D02*
G37*
G36*
X436615Y321640D02*
X435046Y320071D01*
X436615Y318503D01*
X438184Y320071D01*
X436615Y321640D01*
D02*
G37*
G36*
X434693Y319718D02*
X433124Y318149D01*
X434693Y316580D01*
X436261Y318149D01*
X434693Y319718D01*
D02*
G37*
G36*
X424114Y312984D02*
X422545Y311415D01*
X424114Y309846D01*
X425682Y311415D01*
X424114Y312984D01*
D02*
G37*
G36*
X459748Y315211D02*
X456256Y311720D01*
X459748Y308229D01*
X462140Y310621D01*
X462590Y310539D01*
X462702Y310476D01*
X463040Y309969D01*
X463596Y309597D01*
X464252Y309467D01*
X464908Y309597D01*
X465464Y309969D01*
X465836Y310525D01*
X465966Y311181D01*
X465836Y311837D01*
X465464Y312393D01*
X464908Y312765D01*
X464252Y312895D01*
X463596Y312765D01*
X463177Y312484D01*
X462474D01*
X459748Y315211D01*
D02*
G37*
G36*
X422191Y311061D02*
X420623Y309493D01*
X422191Y307924D01*
X423760Y309493D01*
X422191Y311061D01*
D02*
G37*
G36*
X426036Y311061D02*
X424467Y309493D01*
X426036Y307924D01*
X427605Y309493D01*
X426036Y311061D01*
D02*
G37*
G36*
X424114Y309139D02*
X422545Y307570D01*
X424114Y306002D01*
X425682Y307570D01*
X424114Y309139D01*
D02*
G37*
G36*
X429403Y318273D02*
X425912Y314782D01*
X429403Y311291D01*
X432129Y314017D01*
X434193D01*
X441265Y306945D01*
X441160Y306417D01*
X441291Y305761D01*
X441662Y305205D01*
X442218Y304834D01*
X442874Y304703D01*
X443530Y304834D01*
X444086Y305205D01*
X444458Y305761D01*
X444588Y306417D01*
X444458Y307073D01*
X444086Y307629D01*
X443530Y308001D01*
X442874Y308131D01*
X442346Y308026D01*
X435050Y315323D01*
X434802Y315489D01*
X434509Y315547D01*
X432129D01*
X429403Y318273D01*
D02*
G37*
G36*
X422481Y303609D02*
X417544D01*
Y298672D01*
X422481D01*
Y303609D01*
D02*
G37*
G36*
X442874Y297974D02*
X442218Y297843D01*
X441662Y297472D01*
X441363Y297024D01*
X432039D01*
X431746Y296966D01*
X431498Y296801D01*
X431498Y296800D01*
X427546Y292848D01*
X426341Y294053D01*
X422850Y290562D01*
X426341Y287071D01*
X429832Y290562D01*
X428627Y291767D01*
X432355Y295495D01*
X441363D01*
X441662Y295048D01*
X442218Y294676D01*
X442874Y294546D01*
X443530Y294676D01*
X444086Y295048D01*
X444458Y295604D01*
X444588Y296260D01*
X444458Y296916D01*
X444086Y297472D01*
X443530Y297843D01*
X442874Y297974D01*
D02*
G37*
G36*
X461975Y296280D02*
X460406Y294712D01*
X461975Y293143D01*
X463543Y294712D01*
X461975Y296280D01*
D02*
G37*
G36*
X460052Y294358D02*
X458484Y292789D01*
X460052Y291221D01*
X461621Y292789D01*
X460052Y294358D01*
D02*
G37*
G36*
X463897Y294358D02*
X462328Y292789D01*
X463897Y291221D01*
X465466Y292789D01*
X463897Y294358D01*
D02*
G37*
G36*
X461975Y292436D02*
X460406Y290867D01*
X461975Y289298D01*
X463543Y290867D01*
X461975Y292436D01*
D02*
G37*
G36*
X456685Y290991D02*
X455117Y289422D01*
X456685Y287854D01*
X458254Y289422D01*
X456685Y290991D01*
D02*
G37*
G36*
X442795Y287934D02*
X442139Y287804D01*
X441583Y287433D01*
X441284Y286985D01*
X434248D01*
X433956Y286927D01*
X433708Y286761D01*
X433670Y286724D01*
X432466Y287929D01*
X428974Y284438D01*
X432466Y280947D01*
X435956Y284438D01*
X435400Y284994D01*
X435592Y285456D01*
X441284D01*
X441583Y285009D01*
X442139Y284637D01*
X442795Y284506D01*
X443451Y284637D01*
X444007Y285009D01*
X444379Y285564D01*
X444509Y286221D01*
X444379Y286876D01*
X444007Y287433D01*
X443451Y287804D01*
X442795Y287934D01*
D02*
G37*
G36*
X458607Y289069D02*
X457039Y287500D01*
X458607Y285931D01*
X460176Y287500D01*
X458607Y289069D01*
D02*
G37*
G36*
X454763Y289069D02*
X453194Y287500D01*
X454763Y285931D01*
X456332Y287500D01*
X454763Y289069D01*
D02*
G37*
G36*
X456685Y287146D02*
X455117Y285578D01*
X456685Y284009D01*
X458254Y285578D01*
X456685Y287146D01*
D02*
G37*
G36*
X451396Y285701D02*
X449827Y284133D01*
X451396Y282564D01*
X452965Y284133D01*
X451396Y285701D01*
D02*
G37*
G36*
X449474Y283779D02*
X447905Y282210D01*
X449474Y280642D01*
X451042Y282210D01*
X449474Y283779D01*
D02*
G37*
G36*
X453318Y283779D02*
X451749Y282210D01*
X453318Y280642D01*
X454887Y282210D01*
X453318Y283779D01*
D02*
G37*
G36*
X451396Y281857D02*
X449827Y280288D01*
X451396Y278719D01*
X452965Y280288D01*
X451396Y281857D01*
D02*
G37*
%LPD*%
D11*
X361723Y303828D02*
X363898Y301654D01*
X352677Y300748D02*
X360157D01*
X341260Y289331D02*
X352677Y300748D01*
X360157D02*
X361732Y299173D01*
X354533Y297291D02*
X355036D01*
X355556Y296772D02*
X401142D01*
X355036Y297291D02*
X355556Y296772D01*
X363898Y301654D02*
X401142D01*
X391732Y291890D02*
X401142D01*
X391693Y291850D02*
X391732Y291890D01*
X376339Y294016D02*
X382874D01*
X401102Y299173D02*
X401142Y299213D01*
X361732Y299173D02*
X401102D01*
X380315Y304331D02*
X400906D01*
X401142Y304095D01*
X376339Y294016D02*
X382874D01*
X362953Y279803D02*
X364921Y277835D01*
X394882Y277244D02*
X401142D01*
X364921Y277835D02*
X394291D01*
X394882Y277244D01*
X376339Y294016D02*
X382874D01*
X362953Y279803D02*
Y281811D01*
X401142Y299213D02*
X409173D01*
X410984Y297402D01*
X401142Y301654D02*
X411011D01*
X411096Y301738D01*
X376339Y294016D02*
X382874D01*
X376339D02*
X382874D01*
X362520Y293779D02*
X362756Y294016D01*
X382874D01*
X380945Y279685D02*
X401142D01*
X379291Y281339D02*
X380945Y279685D01*
X386575Y306653D02*
X401024D01*
X401142Y306535D01*
X389016Y308976D02*
X401142D01*
X384921Y313071D02*
X389016Y308976D01*
X401102Y286968D02*
X401142Y287008D01*
X389921Y286968D02*
X401102D01*
X382874Y294016D02*
X389921Y286968D01*
X401142Y287008D02*
X401181Y286968D01*
X410906D01*
X411614Y287677D02*
Y293701D01*
X410906Y286968D02*
X411614Y287677D01*
X410984Y294331D02*
X411614Y293701D01*
X401142Y294331D02*
X410984D01*
X377480Y287913D02*
X383268Y282126D01*
X362047Y287913D02*
X377480D01*
X383268Y282126D02*
X401142D01*
X382598Y287835D02*
X385866Y284567D01*
X401142D01*
X432466Y284438D02*
X432466D01*
X434248Y286221D01*
X442795D01*
X426341Y290562D02*
X426341D01*
X432039Y296260D01*
X442874D01*
X429403Y314782D02*
X434509D01*
X442874Y306417D01*
X453623Y317844D02*
X460797D01*
X464055Y321102D01*
X459748Y311720D02*
X463209D01*
X463748Y311181D01*
X464252D01*
D19*
X401142Y277244D02*
D03*
Y279685D02*
D03*
Y282126D02*
D03*
Y284567D02*
D03*
Y287008D02*
D03*
Y289449D02*
D03*
Y291890D02*
D03*
Y294331D02*
D03*
Y296772D02*
D03*
Y299213D02*
D03*
Y301654D02*
D03*
Y304095D02*
D03*
Y306535D02*
D03*
Y308976D02*
D03*
D20*
X432466Y284438D02*
D03*
X459748Y311720D02*
D03*
X453623Y317844D02*
D03*
X426341Y290562D02*
D03*
X424114Y309493D02*
D03*
X429403Y314782D02*
D03*
X434693Y320071D02*
D03*
X451396Y282210D02*
D03*
X456685Y287500D02*
D03*
X461975Y292789D02*
D03*
D21*
X466076Y301141D02*
D03*
X420013D02*
D03*
D22*
X443044Y324172D02*
D03*
Y278110D02*
D03*
D23*
X361642Y303746D02*
D03*
X354533Y297291D02*
D03*
X391693Y291850D02*
D03*
X341260Y289331D02*
D03*
X380315Y304331D02*
D03*
X362953Y281811D02*
D03*
X410984Y297402D02*
D03*
X411096Y301738D02*
D03*
X362520Y293779D02*
D03*
X379291Y281339D02*
D03*
X386575Y306653D02*
D03*
X384921Y313071D02*
D03*
X376339Y294016D02*
D03*
X362047Y287913D02*
D03*
X382598Y287835D02*
D03*
X421732Y281063D02*
D03*
X442795Y286221D02*
D03*
X442874Y296260D02*
D03*
Y306417D02*
D03*
X464055Y321102D02*
D03*
X464252Y311181D02*
D03*
M02*
