G04*
G04 #@! TF.GenerationSoftware,Altium Limited,Altium Designer,20.2.6 (244)*
G04*
G04 Layer_Color=8388736*
%FSLAX25Y25*%
%MOIN*%
G70*
G04*
G04 #@! TF.SameCoordinates,1782C56F-5B0B-48C2-A17B-6D9890C7136C*
G04*
G04*
G04 #@! TF.FilePolarity,Negative*
G04*
G01*
G75*
%ADD14R,0.14370X0.01850*%
%ADD15P,0.06403X4X90.0*%
%ADD16R,0.04528X0.04528*%
%ADD17R,0.04528X0.04528*%
%ADD18C,0.02953*%
D14*
X401142Y277244D02*
D03*
Y279685D02*
D03*
Y282126D02*
D03*
Y284567D02*
D03*
Y287008D02*
D03*
Y289449D02*
D03*
Y291890D02*
D03*
Y294331D02*
D03*
Y296772D02*
D03*
Y299213D02*
D03*
Y301654D02*
D03*
Y304095D02*
D03*
Y306535D02*
D03*
Y308976D02*
D03*
D15*
X432466Y284438D02*
D03*
X459748Y311720D02*
D03*
X453623Y317844D02*
D03*
X426341Y290562D02*
D03*
X424114Y309493D02*
D03*
X429403Y314782D02*
D03*
X434693Y320071D02*
D03*
X451396Y282210D02*
D03*
X456685Y287500D02*
D03*
X461975Y292789D02*
D03*
D16*
X466076Y301141D02*
D03*
X420013D02*
D03*
D17*
X443044Y324172D02*
D03*
Y278110D02*
D03*
D18*
X361642Y303746D02*
D03*
X354533Y297291D02*
D03*
X391693Y291850D02*
D03*
X341260Y289331D02*
D03*
X380315Y304331D02*
D03*
X362953Y281811D02*
D03*
X410984Y297402D02*
D03*
X411096Y301738D02*
D03*
X362520Y293779D02*
D03*
X379291Y281339D02*
D03*
X386575Y306653D02*
D03*
X384921Y313071D02*
D03*
X376339Y294016D02*
D03*
X362047Y287913D02*
D03*
X382598Y287835D02*
D03*
X421732Y281063D02*
D03*
X442795Y286221D02*
D03*
X442874Y296260D02*
D03*
Y306417D02*
D03*
X464055Y321102D02*
D03*
X464252Y311181D02*
D03*
M02*
