G04*
G04 #@! TF.GenerationSoftware,Altium Limited,Altium Designer,20.2.6 (244)*
G04*
G04 Layer_Color=32896*
%FSLAX25Y25*%
%MOIN*%
G70*
G04*
G04 #@! TF.SameCoordinates,1782C56F-5B0B-48C2-A17B-6D9890C7136C*
G04*
G04*
G04 #@! TF.FilePolarity,Positive*
G04*
G01*
G75*
%ADD13C,0.00504*%
%ADD35C,0.00984*%
%ADD36C,0.00591*%
%ADD37C,0.00787*%
D13*
X466425Y322755D02*
Y319756D01*
X464926D01*
X464426Y320256D01*
Y320756D01*
X464926Y321255D01*
X466425D01*
X464926D01*
X464426Y321755D01*
Y322255D01*
X464926Y322755D01*
X466425D01*
X463426Y319756D02*
X462427D01*
X462926D01*
Y322755D01*
X463426Y322255D01*
X466425Y293109D02*
Y290110D01*
X464926D01*
X464426Y290610D01*
Y291110D01*
X464926Y291610D01*
X466425D01*
X464926D01*
X464426Y292110D01*
Y292609D01*
X464926Y293109D01*
X466425D01*
X461927Y290110D02*
Y293109D01*
X463426Y291610D01*
X461427D01*
X418756Y292609D02*
X419256Y293109D01*
X420256D01*
X420756Y292609D01*
Y292110D01*
X420256Y291610D01*
X419256D01*
X418756Y291110D01*
Y290610D01*
X419256Y290110D01*
X420256D01*
X420756Y290610D01*
X415758Y292609D02*
X416257Y293109D01*
X417257D01*
X417757Y292609D01*
Y290610D01*
X417257Y290110D01*
X416257D01*
X415758Y290610D01*
X414758Y293109D02*
Y290110D01*
X412758D01*
X420756Y322834D02*
Y320834D01*
X419756Y319835D01*
X418756Y320834D01*
Y322834D01*
X415758Y322334D02*
X416257Y322834D01*
X417257D01*
X417757Y322334D01*
Y320335D01*
X417257Y319835D01*
X416257D01*
X415758Y320335D01*
X412758Y322334D02*
X413258Y322834D01*
X414258D01*
X414758Y322334D01*
Y320335D01*
X414258Y319835D01*
X413258D01*
X412758Y320335D01*
X466425Y302912D02*
Y299913D01*
X464926D01*
X464426Y300413D01*
Y300913D01*
X464926Y301413D01*
X466425D01*
X464926D01*
X464426Y301913D01*
Y302413D01*
X464926Y302912D01*
X466425D01*
X463426Y302413D02*
X462926Y302912D01*
X461927D01*
X461427Y302413D01*
Y301913D01*
X461927Y301413D01*
X462427D01*
X461927D01*
X461427Y300913D01*
Y300413D01*
X461927Y299913D01*
X462926D01*
X463426Y300413D01*
X466425Y313070D02*
Y310071D01*
X464926D01*
X464426Y310571D01*
Y311071D01*
X464926Y311570D01*
X466425D01*
X464926D01*
X464426Y312070D01*
Y312570D01*
X464926Y313070D01*
X466425D01*
X461427Y310071D02*
X463426D01*
X461427Y312070D01*
Y312570D01*
X461927Y313070D01*
X462926D01*
X463426Y312570D01*
X418756Y282531D02*
X419256Y283031D01*
X420256D01*
X420756Y282531D01*
Y280531D01*
X420256Y280031D01*
X419256D01*
X418756Y280531D01*
Y281531D01*
X419756D01*
X417757Y280031D02*
Y283031D01*
X415758Y280031D01*
Y283031D01*
X414758D02*
Y280031D01*
X413258D01*
X412758Y280531D01*
Y282531D01*
X413258Y283031D01*
X414758D01*
X466425Y282597D02*
Y279598D01*
X464926D01*
X464426Y280098D01*
Y280598D01*
X464926Y281098D01*
X466425D01*
X464926D01*
X464426Y281598D01*
Y282098D01*
X464926Y282597D01*
X466425D01*
X461427D02*
X463426D01*
Y281098D01*
X462427Y281598D01*
X461927D01*
X461427Y281098D01*
Y280098D01*
X461927Y279598D01*
X462926D01*
X463426Y280098D01*
X418756Y302098D02*
X419256Y302597D01*
X420256D01*
X420756Y302098D01*
Y301598D01*
X420256Y301098D01*
X419256D01*
X418756Y300598D01*
Y300098D01*
X419256Y299598D01*
X420256D01*
X420756Y300098D01*
X417757Y302597D02*
Y299598D01*
X416257D01*
X415758Y300098D01*
Y302098D01*
X416257Y302597D01*
X417757D01*
X414758Y299598D02*
Y301598D01*
X413758Y302597D01*
X412758Y301598D01*
Y299598D01*
Y301098D01*
X414758D01*
X420756Y309559D02*
Y312558D01*
X418756Y309559D01*
Y312558D01*
X415758Y312058D02*
X416257Y312558D01*
X417257D01*
X417757Y312058D01*
Y310059D01*
X417257Y309559D01*
X416257D01*
X415758Y310059D01*
X358768Y320330D02*
X359267Y320830D01*
X360267D01*
X360767Y320330D01*
Y318331D01*
X360267Y317831D01*
X359267D01*
X358768Y318331D01*
X355768Y320830D02*
X356768Y320330D01*
X357768Y319331D01*
Y318331D01*
X357268Y317831D01*
X356268D01*
X355768Y318331D01*
Y318831D01*
X356268Y319331D01*
X357768D01*
X358268Y280496D02*
X357768Y279996D01*
X356768D01*
X356268Y280496D01*
Y282496D01*
X356768Y282996D01*
X357768D01*
X358268Y282496D01*
X359267Y282996D02*
X360267D01*
X359767D01*
Y279996D01*
X359267Y280496D01*
X444755Y322634D02*
Y325633D01*
X443256D01*
X442756Y325133D01*
Y324134D01*
X443256Y323634D01*
X444755D01*
X441756Y322634D02*
X440757D01*
X441256D01*
Y325633D01*
X441756Y325133D01*
X299712Y288401D02*
X300212Y288901D01*
X301212D01*
X301712Y288401D01*
Y286402D01*
X301212Y285902D01*
X300212D01*
X299712Y286402D01*
X298713D02*
X298213Y285902D01*
X297213D01*
X296713Y286402D01*
Y288401D01*
X297213Y288901D01*
X298213D01*
X298713Y288401D01*
Y287901D01*
X298213Y287402D01*
X296713D01*
X299712Y312023D02*
X300212Y312523D01*
X301212D01*
X301712Y312023D01*
Y310024D01*
X301212Y309524D01*
X300212D01*
X299712Y310024D01*
X298713Y312023D02*
X298213Y312523D01*
X297213D01*
X296713Y312023D01*
Y311524D01*
X297213Y311024D01*
X296713Y310524D01*
Y310024D01*
X297213Y309524D01*
X298213D01*
X298713Y310024D01*
Y310524D01*
X298213Y311024D01*
X298713Y311524D01*
Y312023D01*
X298213Y311024D02*
X297213D01*
X324834Y287871D02*
Y290870D01*
X323335D01*
X322835Y290370D01*
Y289370D01*
X323335Y288870D01*
X324834D01*
X323834D02*
X322835Y287871D01*
X321835D02*
X320835D01*
X321335D01*
Y290870D01*
X321835Y290370D01*
X302462Y300712D02*
X301462D01*
X301962D01*
Y297713D01*
X302462D01*
X301462D01*
X297963Y300212D02*
X298463Y300712D01*
X299463D01*
X299962Y300212D01*
Y298213D01*
X299463Y297713D01*
X298463D01*
X297963Y298213D01*
X296963Y297713D02*
X295964D01*
X296463D01*
Y300712D01*
X296963Y300212D01*
X360767Y298894D02*
Y301893D01*
X359267D01*
X358768Y301393D01*
Y300394D01*
X359267Y299894D01*
X360767D01*
X359767D02*
X358768Y298894D01*
X356268D02*
Y301893D01*
X357768Y300394D01*
X355768D01*
X325334Y279996D02*
Y282996D01*
X323834D01*
X323335Y282496D01*
Y281496D01*
X323834Y280996D01*
X325334D01*
X324334D02*
X323335Y279996D01*
X320336D02*
X322335D01*
X320336Y281996D01*
Y282496D01*
X320835Y282996D01*
X321835D01*
X322335Y282496D01*
X325334Y295745D02*
Y298744D01*
X323834D01*
X323335Y298244D01*
Y297244D01*
X323834Y296744D01*
X325334D01*
X324334D02*
X323335Y295745D01*
X322335Y298244D02*
X321835Y298744D01*
X320835D01*
X320336Y298244D01*
Y297744D01*
X320835Y297244D01*
X321335D01*
X320835D01*
X320336Y296744D01*
Y296244D01*
X320835Y295745D01*
X321835D01*
X322335Y296244D01*
X324834Y306618D02*
Y303619D01*
X323335D01*
X322835Y304118D01*
Y306118D01*
X323335Y306618D01*
X324834D01*
X321835Y303619D02*
X320835D01*
X321335D01*
Y306618D01*
X321835Y306118D01*
X358768Y307693D02*
X359267Y308192D01*
X360267D01*
X360767Y307693D01*
Y305693D01*
X360267Y305193D01*
X359267D01*
X358768Y305693D01*
X357768Y307693D02*
X357268Y308192D01*
X356268D01*
X355768Y307693D01*
Y307193D01*
X356268Y306693D01*
X356768D01*
X356268D01*
X355768Y306193D01*
Y305693D01*
X356268Y305193D01*
X357268D01*
X357768Y305693D01*
X323335Y313992D02*
X323834Y314492D01*
X324834D01*
X325334Y313992D01*
Y311993D01*
X324834Y311493D01*
X323834D01*
X323335Y311993D01*
X320835Y311493D02*
Y314492D01*
X322335Y312992D01*
X320336D01*
X358768Y295094D02*
X359267Y295594D01*
X360267D01*
X360767Y295094D01*
Y293095D01*
X360267Y292595D01*
X359267D01*
X358768Y293095D01*
X357768Y295594D02*
X355768D01*
Y295094D01*
X357768Y293095D01*
Y292595D01*
X357768Y286796D02*
X357268Y286296D01*
X356268D01*
X355768Y286796D01*
Y288795D01*
X356268Y289295D01*
X357268D01*
X357768Y288795D01*
X360767Y289295D02*
X358768D01*
X360767Y287295D01*
Y286796D01*
X360267Y286296D01*
X359267D01*
X358768Y286796D01*
X358768Y313992D02*
X359267Y314492D01*
X360267D01*
X360767Y313992D01*
Y311993D01*
X360267Y311493D01*
X359267D01*
X358768Y311993D01*
X355768Y314492D02*
X357768D01*
Y312992D01*
X356768Y313492D01*
X356268D01*
X355768Y312992D01*
Y311993D01*
X356268Y311493D01*
X357268D01*
X357768Y311993D01*
D35*
X316043Y306398D02*
X315305Y306824D01*
Y305971D01*
X316043Y306398D01*
X433405Y273681D02*
X432667Y274107D01*
Y273255D01*
X433405Y273681D01*
D36*
X364567Y320866D02*
Y322047D01*
X375590D01*
Y320866D02*
Y322047D01*
Y316535D02*
Y317717D01*
X364567Y316535D02*
X375590D01*
X364567D02*
Y317717D01*
X370079Y316535D02*
Y322047D01*
Y310236D02*
Y315748D01*
X364567Y310236D02*
Y311417D01*
Y310236D02*
X375590D01*
Y311417D01*
Y314567D02*
Y315748D01*
X364567D02*
X375590D01*
X364567Y314567D02*
Y315748D01*
Y295669D02*
Y296850D01*
X375590D01*
Y295669D02*
Y296850D01*
Y291339D02*
Y292520D01*
X364567Y291339D02*
X375590D01*
X364567D02*
Y292520D01*
X370079Y291339D02*
Y296850D01*
X364567Y308268D02*
Y309449D01*
X375590D01*
Y308268D02*
Y309449D01*
Y303937D02*
Y305118D01*
X364567Y303937D02*
X375590D01*
X364567D02*
Y305118D01*
X370079Y303937D02*
Y309449D01*
X365079Y302394D02*
Y303150D01*
X375079D01*
Y302394D02*
Y303150D01*
Y297638D02*
Y298394D01*
X365079Y297638D02*
X375079D01*
X365079D02*
Y298394D01*
X370079Y297638D02*
Y303150D01*
X364567Y289370D02*
Y290551D01*
X375590D01*
Y289370D02*
Y290551D01*
Y285039D02*
Y286221D01*
X364567Y285039D02*
X375590D01*
X364567D02*
Y286221D01*
X370079Y285039D02*
Y290551D01*
Y278740D02*
Y284252D01*
X364567Y278740D02*
Y279921D01*
Y278740D02*
X375590D01*
Y279921D01*
Y283071D02*
Y284252D01*
X364567D02*
X375590D01*
X364567Y283071D02*
Y284252D01*
X311024Y284646D02*
Y290158D01*
X305512Y284646D02*
Y285827D01*
Y284646D02*
X316535D01*
Y285827D01*
Y288976D02*
Y290158D01*
X305512D02*
X316535D01*
X305512Y288976D02*
Y290158D01*
X311024Y308268D02*
Y313779D01*
X316535Y312598D02*
Y313779D01*
X305512D02*
X316535D01*
X305512Y312598D02*
Y313779D01*
Y308268D02*
Y309449D01*
Y308268D02*
X316535D01*
Y309449D01*
X339646Y278740D02*
Y279496D01*
X329646Y278740D02*
X339646D01*
X329646D02*
Y279496D01*
Y283496D02*
Y284252D01*
X339646D01*
Y283496D02*
Y284252D01*
X334646Y278740D02*
Y284252D01*
X339646Y286614D02*
Y287370D01*
X329646Y286614D02*
X339646D01*
X329646D02*
Y287370D01*
Y291370D02*
Y292126D01*
X339646D01*
Y291370D02*
Y292126D01*
X334646Y286614D02*
Y292126D01*
X329646Y299244D02*
Y300000D01*
X339646D01*
Y299244D02*
Y300000D01*
Y294488D02*
Y295244D01*
X329646Y294488D02*
X339646D01*
X329646D02*
Y295244D01*
X334646Y294488D02*
Y300000D01*
X329134Y314567D02*
Y315748D01*
X340158D01*
Y314567D02*
Y315748D01*
Y310236D02*
Y311417D01*
X329134Y310236D02*
X340158D01*
X329134D02*
Y311417D01*
X334646Y310236D02*
Y315748D01*
D37*
X308268Y293701D02*
Y296358D01*
Y293701D02*
X312205D01*
X308268Y302067D02*
Y304724D01*
X312205D01*
X452913Y325256D02*
Y326181D01*
X432913Y325256D02*
Y326181D01*
X452913D01*
X432913Y276181D02*
X452913D01*
X432913D02*
Y277106D01*
X452913Y276181D02*
Y277106D01*
X329626Y305906D02*
Y307480D01*
X328862Y307480D02*
X339665D01*
X328862Y305906D02*
X329626D01*
X328862D02*
Y307480D01*
X339665Y306299D02*
Y307480D01*
Y302756D02*
Y303937D01*
X328862Y302756D02*
Y304331D01*
X329626D01*
X328862Y302756D02*
X339665D01*
X329626Y302756D02*
Y304331D01*
M02*
