G04*
G04 #@! TF.GenerationSoftware,Altium Limited,Altium Designer,20.2.6 (244)*
G04*
G04 Layer_Color=16711935*
%FSLAX25Y25*%
%MOIN*%
G70*
G04*
G04 #@! TF.SameCoordinates,1782C56F-5B0B-48C2-A17B-6D9890C7136C*
G04*
G04*
G04 #@! TF.FilePolarity,Positive*
G04*
G01*
G75*
%ADD37C,0.00787*%
%ADD38C,0.00394*%
%ADD39R,0.01575X0.03149*%
D37*
X415631Y300787D02*
X442913Y328069D01*
X470195Y300787D01*
X442913Y273505D02*
X470195Y300787D01*
X415631D02*
X442913Y273505D01*
D38*
X366634Y317421D02*
Y321161D01*
X373524Y317421D02*
Y321161D01*
X366634Y317421D02*
X373524D01*
X366634Y321161D02*
X373524D01*
X366634Y314862D02*
X373524D01*
X366634Y311122D02*
X373524D01*
Y314862D01*
X366634Y311122D02*
Y314862D01*
Y292224D02*
Y295965D01*
X373524Y292224D02*
Y295965D01*
X366634Y292224D02*
X373524D01*
X366634Y295965D02*
X373524D01*
X366634Y304823D02*
Y308563D01*
X373524Y304823D02*
Y308563D01*
X366634Y304823D02*
X373524D01*
X366634Y308563D02*
X373524D01*
X366634Y302264D02*
X373524D01*
X366634Y298524D02*
X373524D01*
Y302264D01*
X366634Y298524D02*
Y302264D01*
X366634Y285925D02*
Y289665D01*
X373524Y285925D02*
Y289665D01*
X366634Y285925D02*
X373524D01*
X366634Y289665D02*
X373524D01*
X366634Y283366D02*
X373524D01*
X366634Y279626D02*
X373524D01*
Y283366D01*
X366634Y279626D02*
Y283366D01*
X307579Y289272D02*
X314469D01*
X307579Y285531D02*
X314469D01*
Y289272D01*
X307579Y285531D02*
Y289272D01*
X308268Y293701D02*
X313779D01*
X308268Y304724D02*
X313779D01*
X308268Y293701D02*
Y304724D01*
X313779Y293701D02*
Y304724D01*
X307579Y309154D02*
X314469D01*
X307579Y312894D02*
X314469D01*
X307579Y309154D02*
Y312894D01*
X314469Y309154D02*
Y312894D01*
X432913Y326181D02*
X452913D01*
X432913Y276181D02*
Y326181D01*
Y276181D02*
X452913D01*
Y326181D01*
X337795Y303544D02*
Y306693D01*
X331495Y303544D02*
Y306693D01*
X337795D01*
X331495Y303544D02*
X337795D01*
X331201Y279626D02*
X338091D01*
X331201Y283366D02*
X338091D01*
X331201Y279626D02*
Y283366D01*
X338091Y279626D02*
Y283366D01*
X331201Y287500D02*
X338091D01*
X331201Y291240D02*
X338091D01*
X331201Y287500D02*
Y291240D01*
X338091Y287500D02*
Y291240D01*
X331201Y299114D02*
X338090D01*
X331201Y295374D02*
X338090D01*
Y299114D01*
X331201Y295374D02*
Y299114D01*
X331201Y311122D02*
Y314862D01*
X338090Y311122D02*
Y314862D01*
X331201Y311122D02*
X338090D01*
X331201Y314862D02*
X338090D01*
D39*
X332283Y305118D02*
D03*
M02*
