M48
;Layer_Color=9474304
;FILE_FORMAT=2:5
INCH,TZ
;TYPE=PLATED
T1F00S00C0.01181
%
T01
X341260Y289331
X354533Y297291
X362520Y293779
X362047Y287913
X362953Y281811
X379291Y281339
X382598Y287835
X376339Y294016
X380315Y304331
X386575Y306653
X391693Y291850
X410984Y297402
X411096Y301738
X421732Y281063
X442795Y286221
X442874Y296260
Y306417
X464252Y311181
X361642Y303746
X384921Y313071
X464055Y321102
M30
