G04*
G04 #@! TF.GenerationSoftware,Altium Limited,Altium Designer,20.2.6 (244)*
G04*
G04 Layer_Physical_Order=2*
G04 Layer_Color=16711680*
%FSLAX25Y25*%
%MOIN*%
G70*
G04*
G04 #@! TF.SameCoordinates,1782C56F-5B0B-48C2-A17B-6D9890C7136C*
G04*
G04*
G04 #@! TF.FilePolarity,Positive*
G04*
G01*
G75*
%ADD11C,0.00500*%
%ADD12C,0.01000*%
%ADD23C,0.02362*%
%ADD24R,0.03543X0.03937*%
%ADD25R,0.03347X0.03740*%
%ADD26R,0.03740X0.02559*%
%ADD27R,0.14488X0.05000*%
%ADD28R,0.02362X0.02756*%
%ADD29C,0.01500*%
G36*
X468095Y326363D02*
X468095Y276000D01*
X291748Y276000D01*
X291748Y326363D01*
X468095Y326363D01*
D02*
G37*
%LPC*%
G36*
X369693Y321760D02*
X367671D01*
Y319541D01*
X369693D01*
Y321760D01*
D02*
G37*
G36*
X367171D02*
X365150D01*
Y319541D01*
X367171D01*
Y321760D01*
D02*
G37*
G36*
X460402Y324181D02*
X444913D01*
Y318181D01*
X460402D01*
Y320416D01*
X462492D01*
X462843Y319890D01*
X463399Y319519D01*
X464055Y319388D01*
X464711Y319519D01*
X465267Y319890D01*
X465639Y320446D01*
X465769Y321102D01*
X465639Y321758D01*
X465267Y322314D01*
X464711Y322686D01*
X464055Y322816D01*
X463399Y322686D01*
X462843Y322314D01*
X462597Y321946D01*
X460402D01*
Y324181D01*
D02*
G37*
G36*
X425906Y324975D02*
X313425D01*
X312937Y324878D01*
X312524Y324602D01*
X307465Y319543D01*
X307189Y319129D01*
X307092Y318642D01*
Y313492D01*
X306095D01*
Y310357D01*
X305595Y309858D01*
X305319Y309444D01*
X305222Y308957D01*
Y300992D01*
X304126D01*
Y297433D01*
X308866D01*
Y300992D01*
X307771D01*
Y308429D01*
X307897Y308555D01*
X310638D01*
Y313492D01*
X309641D01*
Y318114D01*
X313953Y322426D01*
X425378D01*
X425425Y322379D01*
Y318181D01*
X440913D01*
Y324181D01*
X427228D01*
X426807Y324602D01*
X426393Y324878D01*
X425906Y324975D01*
D02*
G37*
G36*
X369693Y319041D02*
X367671D01*
Y316823D01*
X369693D01*
Y319041D01*
D02*
G37*
G36*
X367171D02*
X365150D01*
Y316823D01*
X367171D01*
Y319041D01*
D02*
G37*
G36*
X369693Y315461D02*
X367671D01*
Y313242D01*
X369693D01*
Y315461D01*
D02*
G37*
G36*
X367171D02*
X365150D01*
Y313242D01*
X367171D01*
Y315461D01*
D02*
G37*
G36*
X334260D02*
X332238D01*
Y313242D01*
X334260D01*
Y315461D01*
D02*
G37*
G36*
X331738D02*
X329716D01*
Y313242D01*
X331738D01*
Y315461D01*
D02*
G37*
G36*
X375008Y321760D02*
X370465D01*
Y316823D01*
X371462D01*
Y315461D01*
X370465D01*
Y310524D01*
X375008D01*
Y312227D01*
X383463D01*
X383709Y311859D01*
X384265Y311487D01*
X384921Y311357D01*
X385577Y311487D01*
X386133Y311859D01*
X386505Y312415D01*
X386635Y313071D01*
X386505Y313727D01*
X386133Y314283D01*
X385577Y314654D01*
X384921Y314785D01*
X384265Y314654D01*
X383709Y314283D01*
X383358Y313757D01*
X375008D01*
Y315461D01*
X374011D01*
Y316823D01*
X375008D01*
Y321760D01*
D02*
G37*
G36*
X315953Y313492D02*
X313931D01*
Y311274D01*
X315953D01*
Y313492D01*
D02*
G37*
G36*
X313431D02*
X311409D01*
Y311274D01*
X313431D01*
Y313492D01*
D02*
G37*
G36*
X369693Y312742D02*
X367671D01*
Y310524D01*
X369693D01*
Y312742D01*
D02*
G37*
G36*
X367171D02*
X365150D01*
Y310524D01*
X367171D01*
Y312742D01*
D02*
G37*
G36*
X334260Y312742D02*
X332238D01*
Y310524D01*
X334260D01*
Y312742D01*
D02*
G37*
G36*
X331738D02*
X329716D01*
Y310524D01*
X331738D01*
Y312742D01*
D02*
G37*
G36*
X460402Y314181D02*
X444913D01*
Y308181D01*
X460402D01*
Y310416D01*
X462741D01*
X463040Y309969D01*
X463596Y309597D01*
X464252Y309467D01*
X464908Y309597D01*
X465464Y309969D01*
X465836Y310525D01*
X465966Y311181D01*
X465836Y311837D01*
X465464Y312393D01*
X464908Y312765D01*
X464252Y312895D01*
X463596Y312765D01*
X463040Y312393D01*
X462741Y311946D01*
X460402D01*
Y314181D01*
D02*
G37*
G36*
X315953Y310774D02*
X313931D01*
Y308555D01*
X315953D01*
Y310774D01*
D02*
G37*
G36*
X313431D02*
X311409D01*
Y308555D01*
X313431D01*
Y310774D01*
D02*
G37*
G36*
X440913Y314181D02*
X425425D01*
Y308181D01*
X440913D01*
Y314181D01*
D02*
G37*
G36*
X369693Y309161D02*
X367671D01*
Y306943D01*
X369693D01*
Y309161D01*
D02*
G37*
G36*
X367171D02*
X365150D01*
Y306943D01*
X367171D01*
Y309161D01*
D02*
G37*
G36*
X375008D02*
X370465D01*
Y304224D01*
X375008D01*
Y305928D01*
X378805D01*
X378886Y305824D01*
X379027Y305428D01*
X378731Y304987D01*
X378630Y304475D01*
X375527Y301372D01*
X374811D01*
Y302764D01*
X370465D01*
Y298024D01*
X374811D01*
Y299843D01*
X375844D01*
X376136Y299901D01*
X376385Y300067D01*
X379303Y302985D01*
X379659Y302747D01*
X380315Y302617D01*
X380971Y302747D01*
X381527Y303119D01*
X381898Y303675D01*
X382029Y304331D01*
X381898Y304987D01*
X381604Y305428D01*
X381744Y305824D01*
X381825Y305928D01*
X385038D01*
X385363Y305441D01*
X385919Y305070D01*
X386575Y304940D01*
X387231Y305070D01*
X387787Y305441D01*
X388158Y305998D01*
X388289Y306653D01*
X388158Y307310D01*
X387787Y307866D01*
X387231Y308237D01*
X386575Y308368D01*
X385919Y308237D01*
X385363Y307866D01*
X385090Y307458D01*
X375008D01*
Y309161D01*
D02*
G37*
G36*
X369693Y306443D02*
X367671D01*
Y304224D01*
X369693D01*
Y306443D01*
D02*
G37*
G36*
X367171D02*
X365150D01*
Y304224D01*
X367171D01*
Y306443D01*
D02*
G37*
G36*
X317921Y304732D02*
X315801D01*
Y303203D01*
X317921D01*
Y304732D01*
D02*
G37*
G36*
X315301D02*
X313181D01*
Y303203D01*
X315301D01*
Y304732D01*
D02*
G37*
G36*
X440913Y304181D02*
X425425D01*
Y302503D01*
X412606D01*
X412308Y302950D01*
X411752Y303322D01*
X411096Y303452D01*
X410440Y303322D01*
X409883Y302950D01*
X409512Y302394D01*
X409381Y301738D01*
X409512Y301082D01*
X409883Y300526D01*
X410440Y300154D01*
X411096Y300024D01*
X411752Y300154D01*
X412308Y300526D01*
X412606Y300973D01*
X425425D01*
Y298181D01*
X440913D01*
Y304181D01*
D02*
G37*
G36*
X317921Y302703D02*
X315801D01*
Y301173D01*
X317921D01*
Y302703D01*
D02*
G37*
G36*
X315301D02*
X313181D01*
Y301173D01*
X315301D01*
Y302703D01*
D02*
G37*
G36*
X369693Y302764D02*
X367770D01*
Y300644D01*
X369693D01*
Y302764D01*
D02*
G37*
G36*
X367270D02*
X365347D01*
Y300644D01*
X367270D01*
Y302764D01*
D02*
G37*
G36*
X442874Y308131D02*
X442218Y308001D01*
X441662Y307629D01*
X441291Y307073D01*
X441160Y306417D01*
X441291Y305761D01*
X441662Y305205D01*
X442218Y304834D01*
X442874Y304703D01*
X443237Y304776D01*
X444913Y303100D01*
Y298181D01*
X460402D01*
Y304181D01*
X445995D01*
X444440Y305736D01*
X444458Y305761D01*
X444588Y306417D01*
X444458Y307073D01*
X444086Y307629D01*
X443530Y308001D01*
X442874Y308131D01*
D02*
G37*
G36*
X369693Y300144D02*
X367770D01*
Y298024D01*
X369693D01*
Y300144D01*
D02*
G37*
G36*
X367270D02*
X365347D01*
Y298024D01*
X367270D01*
Y300144D01*
D02*
G37*
G36*
X339575Y315461D02*
X335032D01*
Y310524D01*
X336098D01*
Y306996D01*
X335760D01*
Y303240D01*
X336048D01*
Y299614D01*
X335032D01*
Y294874D01*
X339378D01*
Y296479D01*
X353053D01*
X353321Y296079D01*
X353877Y295708D01*
X354533Y295577D01*
X355188Y295708D01*
X355745Y296079D01*
X356116Y296635D01*
X356247Y297291D01*
X356116Y297947D01*
X355745Y298503D01*
X355188Y298875D01*
X354533Y299005D01*
X353877Y298875D01*
X353321Y298503D01*
X352990Y298009D01*
X339378D01*
Y299614D01*
X338597D01*
Y303240D01*
X339122D01*
Y306996D01*
X338647D01*
Y310524D01*
X339575D01*
Y315461D01*
D02*
G37*
G36*
X369693Y296563D02*
X367671D01*
Y294344D01*
X369693D01*
Y296563D01*
D02*
G37*
G36*
X367171D02*
X365150D01*
Y294344D01*
X367171D01*
Y296563D01*
D02*
G37*
G36*
X375008D02*
X370465D01*
Y291626D01*
X375008D01*
Y292282D01*
X375508Y292549D01*
X375683Y292432D01*
X376339Y292302D01*
X376994Y292432D01*
X377551Y292804D01*
X377922Y293360D01*
X378053Y294016D01*
X377922Y294672D01*
X377551Y295228D01*
X376994Y295599D01*
X376339Y295730D01*
X375683Y295599D01*
X375508Y295482D01*
X375008Y295750D01*
Y296563D01*
D02*
G37*
G36*
X369693Y293845D02*
X367671D01*
Y291626D01*
X369693D01*
Y293845D01*
D02*
G37*
G36*
X367171D02*
X365150D01*
Y291626D01*
X367171D01*
Y293845D01*
D02*
G37*
G36*
X369693Y290264D02*
X365150D01*
Y288678D01*
X363558D01*
X363259Y289125D01*
X362703Y289497D01*
X362047Y289627D01*
X361391Y289497D01*
X360835Y289125D01*
X360464Y288569D01*
X360333Y287913D01*
X360464Y287258D01*
X360835Y286701D01*
X361391Y286330D01*
X362047Y286199D01*
X362703Y286330D01*
X363259Y286701D01*
X363558Y287149D01*
X365150D01*
Y285327D01*
X369693D01*
Y290264D01*
D02*
G37*
G36*
X442874Y297974D02*
X442218Y297843D01*
X441662Y297472D01*
X441291Y296916D01*
X441160Y296260D01*
X441291Y295604D01*
X441662Y295048D01*
X442218Y294676D01*
X442874Y294546D01*
X443369Y294644D01*
X444913Y293100D01*
Y288181D01*
X460402D01*
Y294181D01*
X445995D01*
X444477Y295699D01*
X444588Y296260D01*
X444458Y296916D01*
X444086Y297472D01*
X443530Y297843D01*
X442874Y297974D01*
D02*
G37*
G36*
X410984Y299116D02*
X410328Y298985D01*
X409772Y298614D01*
X409401Y298058D01*
X409270Y297402D01*
X409401Y296746D01*
X409772Y296190D01*
X410328Y295818D01*
X410984Y295688D01*
X411512Y295793D01*
X416664Y290640D01*
X416912Y290475D01*
X417205Y290416D01*
X425425D01*
Y288181D01*
X440913D01*
Y294181D01*
X425425D01*
Y291946D01*
X417521D01*
X412593Y296874D01*
X412698Y297402D01*
X412568Y298058D01*
X412196Y298614D01*
X411640Y298985D01*
X410984Y299116D01*
D02*
G37*
G36*
X310638Y289870D02*
X308616D01*
Y287652D01*
X310638D01*
Y289870D01*
D02*
G37*
G36*
X308116D02*
X306095D01*
Y287652D01*
X308116D01*
Y289870D01*
D02*
G37*
G36*
X339378Y291740D02*
X335032D01*
Y287000D01*
X339378D01*
Y288221D01*
X339878Y288373D01*
X340048Y288119D01*
X340604Y287747D01*
X341260Y287617D01*
X341916Y287747D01*
X342472Y288119D01*
X342843Y288675D01*
X342974Y289331D01*
X342843Y289987D01*
X342472Y290543D01*
X341916Y290914D01*
X341260Y291045D01*
X340604Y290914D01*
X340048Y290543D01*
X339878Y290288D01*
X339378Y290440D01*
Y291740D01*
D02*
G37*
G36*
X375008Y290264D02*
X370465D01*
Y285327D01*
X375008D01*
Y287070D01*
X381087D01*
X381386Y286623D01*
X381943Y286251D01*
X382598Y286121D01*
X383254Y286251D01*
X383810Y286623D01*
X384182Y287179D01*
X384313Y287835D01*
X384182Y288491D01*
X383810Y289047D01*
X383254Y289418D01*
X382598Y289549D01*
X381943Y289418D01*
X381386Y289047D01*
X381087Y288599D01*
X375008D01*
Y290264D01*
D02*
G37*
G36*
X310638Y287152D02*
X308616D01*
Y284933D01*
X310638D01*
Y287152D01*
D02*
G37*
G36*
X308116D02*
X306095D01*
Y284933D01*
X308116D01*
Y287152D01*
D02*
G37*
G36*
X333531Y306996D02*
X330169D01*
Y303240D01*
X330694D01*
Y299614D01*
X329913D01*
Y294874D01*
X330812D01*
Y291740D01*
X329913D01*
Y287000D01*
X330812D01*
Y283866D01*
X329913D01*
Y282771D01*
X319918D01*
X315953Y286736D01*
Y288068D01*
X316452Y288567D01*
X316729Y288981D01*
X316826Y289469D01*
Y293693D01*
X317921D01*
Y297252D01*
X313181D01*
Y293693D01*
X314277D01*
Y289996D01*
X314150Y289870D01*
X311409D01*
Y284933D01*
X314150D01*
X318489Y280595D01*
X318902Y280319D01*
X319390Y280222D01*
X329913D01*
Y279126D01*
X331322D01*
Y277773D01*
X331380Y277481D01*
X331546Y277233D01*
X331839Y276940D01*
X332087Y276774D01*
X332380Y276716D01*
X345276D01*
X345568Y276774D01*
X345816Y276940D01*
X361390Y292513D01*
X361864Y292196D01*
X362520Y292066D01*
X363176Y292196D01*
X363732Y292567D01*
X364103Y293124D01*
X364234Y293779D01*
X364103Y294436D01*
X363732Y294991D01*
X363176Y295363D01*
X362520Y295494D01*
X361864Y295363D01*
X361308Y294991D01*
X360936Y294436D01*
X360868Y294091D01*
X360678Y293964D01*
X344959Y278245D01*
X332851D01*
Y279126D01*
X334260D01*
Y283866D01*
X333361D01*
Y287000D01*
X334260D01*
Y291740D01*
X333361D01*
Y294874D01*
X334260D01*
Y299614D01*
X333243D01*
Y303240D01*
X333531D01*
Y306996D01*
D02*
G37*
G36*
X369693Y283965D02*
X365150D01*
Y282576D01*
X364464D01*
X364165Y283023D01*
X363609Y283395D01*
X362953Y283525D01*
X362297Y283395D01*
X361741Y283023D01*
X361369Y282467D01*
X361239Y281811D01*
X361369Y281155D01*
X361741Y280599D01*
X362297Y280227D01*
X362953Y280097D01*
X363609Y280227D01*
X364165Y280599D01*
X364464Y281046D01*
X365150D01*
Y279028D01*
X369693D01*
Y283965D01*
D02*
G37*
G36*
X361642Y305460D02*
X360986Y305330D01*
X360430Y304958D01*
X360058Y304402D01*
X359928Y303746D01*
X360058Y303090D01*
X360430Y302534D01*
X360877Y302235D01*
Y299833D01*
X343305Y282261D01*
X339378D01*
Y283866D01*
X335032D01*
Y279126D01*
X339378D01*
Y280731D01*
X343622D01*
X343915Y280790D01*
X344163Y280955D01*
X362183Y298975D01*
X362183Y298975D01*
X362348Y299223D01*
X362407Y299516D01*
X362407Y299516D01*
Y302235D01*
X362854Y302534D01*
X363226Y303090D01*
X363356Y303746D01*
X363226Y304402D01*
X362854Y304958D01*
X362298Y305330D01*
X361642Y305460D01*
D02*
G37*
G36*
X440913Y284181D02*
X433419D01*
Y281431D01*
X440913D01*
Y284181D01*
D02*
G37*
G36*
X375008Y283965D02*
X370465D01*
Y279028D01*
X375008D01*
Y280574D01*
X377781D01*
X378079Y280127D01*
X378635Y279755D01*
X379291Y279625D01*
X379947Y279755D01*
X380503Y280127D01*
X380875Y280683D01*
X381005Y281339D01*
X380875Y281995D01*
X380503Y282551D01*
X379947Y282922D01*
X379291Y283053D01*
X378635Y282922D01*
X378079Y282551D01*
X377781Y282103D01*
X375008D01*
Y283965D01*
D02*
G37*
G36*
X442795Y287934D02*
X442139Y287804D01*
X441583Y287433D01*
X441212Y286876D01*
X441081Y286221D01*
X441212Y285564D01*
X441583Y285009D01*
X442139Y284637D01*
X442795Y284506D01*
X443389Y284625D01*
X444913Y283100D01*
Y278181D01*
X460402D01*
Y284181D01*
X445995D01*
X444417Y285758D01*
X444509Y286221D01*
X444379Y286876D01*
X444007Y287433D01*
X443451Y287804D01*
X442795Y287934D01*
D02*
G37*
G36*
X440913Y280931D02*
X433419D01*
Y278181D01*
X440913D01*
Y280931D01*
D02*
G37*
G36*
X432919Y284181D02*
X425425D01*
Y282456D01*
X421732D01*
X421244Y282359D01*
X420831Y282082D01*
X420555Y281669D01*
X420458Y281181D01*
Y281063D01*
X420555Y280575D01*
X420831Y280162D01*
X421244Y279886D01*
X421732Y279788D01*
X422220Y279886D01*
X422252Y279907D01*
X425425D01*
Y278181D01*
X432919D01*
Y281181D01*
Y284181D01*
D02*
G37*
%LPD*%
D11*
X361642Y299516D02*
Y303746D01*
X343622Y281496D02*
X361642Y299516D01*
X337205Y281496D02*
X343622D01*
X354485Y297244D02*
X354533Y297291D01*
X337205Y297244D02*
X354485D01*
X337205Y289370D02*
X341220D01*
X341260Y289331D01*
X372852Y300608D02*
X375844D01*
X379959Y303974D02*
X380315Y304331D01*
X379211Y303974D02*
X379959D01*
X375844Y300608D02*
X379211Y303974D01*
X372638Y300394D02*
X372852Y300608D01*
X345276Y277480D02*
X361219Y293423D01*
X332380Y277480D02*
X345276D01*
X362163Y293423D02*
X362520Y293779D01*
X361219Y293423D02*
X362163D01*
X362953Y281811D02*
X366831D01*
X367284Y281358D01*
X367421Y281496D01*
X417205Y291181D02*
X433169D01*
X410984Y297402D02*
X417205Y291181D01*
X432612Y301738D02*
X433169Y301181D01*
X411096Y301738D02*
X432612D01*
X332087Y277773D02*
Y281496D01*
Y277773D02*
X332380Y277480D01*
X372776Y287835D02*
X382598D01*
X372736Y281496D02*
X372894Y281339D01*
X379291D01*
X372736Y306693D02*
X386535D01*
X386575Y306653D01*
X372736Y312992D02*
X384842D01*
X384921Y313071D01*
X372736Y294094D02*
X376260D01*
X376339Y294016D01*
X367303Y287913D02*
X367421Y287795D01*
X362047Y287913D02*
X367303D01*
X372736Y287795D02*
X372776Y287835D01*
X442795Y286221D02*
X442874D01*
X447913Y281181D02*
X452658D01*
X442874Y286221D02*
X447913Y281181D01*
X442874Y296220D02*
Y296260D01*
X447913Y291181D02*
X452658D01*
X442874Y296220D02*
X447913Y291181D01*
X442874Y306221D02*
Y306417D01*
X447913Y301181D02*
X452658D01*
X442874Y306221D02*
X447913Y301181D01*
X463976Y321181D02*
X464055Y321102D01*
X452658Y321181D02*
X463976D01*
X452658Y311181D02*
X464252D01*
D12*
X452658Y321181D02*
X452854Y321378D01*
X452658Y311181D02*
X453169Y311693D01*
D23*
X361642Y303746D02*
D03*
X354533Y297291D02*
D03*
X391693Y291850D02*
D03*
X341260Y289331D02*
D03*
X380315Y304331D02*
D03*
X362953Y281811D02*
D03*
X410984Y297402D02*
D03*
X411096Y301738D02*
D03*
X362520Y293779D02*
D03*
X379291Y281339D02*
D03*
X386575Y306653D02*
D03*
X384921Y313071D02*
D03*
X376339Y294016D02*
D03*
X362047Y287913D02*
D03*
X382598Y287835D02*
D03*
X421732Y281063D02*
D03*
X442795Y286221D02*
D03*
X442874Y296260D02*
D03*
Y306417D02*
D03*
X464055Y321102D02*
D03*
X464252Y311181D02*
D03*
D24*
X367421Y319291D02*
D03*
X372736D02*
D03*
Y312992D02*
D03*
X367421D02*
D03*
Y294094D02*
D03*
X372736D02*
D03*
X367421Y306693D02*
D03*
X372736D02*
D03*
X367421Y287795D02*
D03*
X372736D02*
D03*
Y281496D02*
D03*
X367421D02*
D03*
X313681Y287402D02*
D03*
X308366D02*
D03*
Y311024D02*
D03*
X313681D02*
D03*
X331988Y312992D02*
D03*
X337303D02*
D03*
D25*
X372638Y300394D02*
D03*
X367520D02*
D03*
X332087Y281496D02*
D03*
X337205D02*
D03*
X332087Y289370D02*
D03*
X337205D02*
D03*
X337205Y297244D02*
D03*
X332087D02*
D03*
D26*
X306496Y299213D02*
D03*
X315551Y295472D02*
D03*
Y302953D02*
D03*
D27*
X433169Y291181D02*
D03*
Y301181D02*
D03*
Y311181D02*
D03*
Y321181D02*
D03*
Y281181D02*
D03*
X452658D02*
D03*
Y291181D02*
D03*
Y301181D02*
D03*
Y311181D02*
D03*
Y321181D02*
D03*
D28*
X331850Y305118D02*
D03*
X337441D02*
D03*
D29*
X337323Y297362D02*
Y305138D01*
X331968Y297362D02*
X332087Y297244D01*
X331968Y297362D02*
Y305000D01*
X331850Y305118D02*
X331968Y305000D01*
X372736Y312992D02*
Y319291D01*
X319390Y281496D02*
X332087D01*
X313681Y287205D02*
X319390Y281496D01*
X313681Y287205D02*
Y287402D01*
X315551Y289469D02*
Y295472D01*
X313681Y287598D02*
X315551Y289469D01*
X313681Y287402D02*
Y287598D01*
X306496Y299213D02*
Y308957D01*
X308366Y310827D01*
Y311024D01*
Y318642D01*
X313425Y323701D01*
X425906D01*
X332087Y281496D02*
Y289370D01*
X332087Y297244D02*
X332087Y297244D01*
Y289370D02*
Y297244D01*
X337323Y305138D02*
X337372Y305187D01*
X337205Y297244D02*
X337323Y297362D01*
X337372Y305187D02*
Y312923D01*
X337303Y312992D02*
X337372Y312923D01*
X425906Y323701D02*
X428425Y321181D01*
X433169D01*
X421732Y281181D02*
X433169D01*
X421732Y281063D02*
Y281181D01*
M02*
