G04*
G04 #@! TF.GenerationSoftware,Altium Limited,Altium Designer,20.2.6 (244)*
G04*
G04 Layer_Color=32768*
%FSLAX25Y25*%
%MOIN*%
G70*
G04*
G04 #@! TF.SameCoordinates,1782C56F-5B0B-48C2-A17B-6D9890C7136C*
G04*
G04*
G04 #@! TF.FilePolarity,Positive*
G04*
G01*
G75*
%ADD38C,0.00394*%
%ADD40C,0.00197*%
D38*
X368209Y319291D02*
X371949D01*
X370079Y317421D02*
Y321161D01*
Y311122D02*
Y314862D01*
X368209Y312992D02*
X371949D01*
X368209Y294094D02*
X371949D01*
X370079Y292224D02*
Y295965D01*
X368209Y306693D02*
X371949D01*
X370079Y304823D02*
Y308563D01*
Y298524D02*
Y302264D01*
X368209Y300394D02*
X371949D01*
X368209Y287795D02*
X371949D01*
X370079Y285925D02*
Y289665D01*
Y279626D02*
Y283366D01*
X368209Y281496D02*
X371949D01*
X311024Y285531D02*
Y289272D01*
X309154Y287402D02*
X312894D01*
X311024Y297244D02*
Y301181D01*
X309055Y299213D02*
X312992D01*
X311024Y309154D02*
Y312894D01*
X309154Y311024D02*
X312894D01*
X442913Y299213D02*
Y303150D01*
X440945Y301181D02*
X444882D01*
X334646Y303150D02*
Y307087D01*
X332677Y305118D02*
X336614D01*
X334646Y279626D02*
Y283366D01*
X332776Y281496D02*
X336516D01*
X334646Y287500D02*
Y291240D01*
X332776Y289370D02*
X336516D01*
X334646Y295374D02*
Y299114D01*
X332776Y297244D02*
X336516D01*
X332776Y312992D02*
X336516D01*
X334646Y311122D02*
Y314862D01*
D40*
X364764Y316339D02*
Y322244D01*
X375394Y316339D02*
Y322244D01*
X364764Y316339D02*
X375394D01*
X364764Y322244D02*
X375394D01*
X364764Y315945D02*
X375394D01*
X364764Y310039D02*
X375394D01*
Y315945D01*
X364764Y310039D02*
Y315945D01*
Y291142D02*
Y297047D01*
X375394Y291142D02*
Y297047D01*
X364764Y291142D02*
X375394D01*
X364764Y297047D02*
X375394D01*
X364764Y303740D02*
Y309646D01*
X375394Y303740D02*
Y309646D01*
X364764Y303740D02*
X375394D01*
X364764Y309646D02*
X375394D01*
X364764Y303346D02*
X375394D01*
X364764Y297441D02*
X375394D01*
Y303346D01*
X364764Y297441D02*
Y303346D01*
X364764Y284842D02*
Y290748D01*
X375394Y284842D02*
Y290748D01*
X364764Y284842D02*
X375394D01*
X364764Y290748D02*
X375394D01*
X364764Y284449D02*
X375394D01*
X364764Y278543D02*
X375394D01*
Y284449D01*
X364764Y278543D02*
Y284449D01*
X305709Y290354D02*
X316339D01*
X305709Y284449D02*
X316339D01*
Y290354D01*
X305709Y284449D02*
Y290354D01*
X303642Y292323D02*
X318406D01*
X303642Y306102D02*
X318406D01*
X303642Y292323D02*
Y306102D01*
X318406Y292323D02*
Y306102D01*
X305709Y308071D02*
X316339D01*
X305709Y313976D02*
X316339D01*
X305709Y308071D02*
Y313976D01*
X316339Y308071D02*
Y313976D01*
X460394Y275295D02*
Y327067D01*
X425433Y275295D02*
X460394D01*
X425433Y327067D02*
X460394D01*
X425433Y275295D02*
Y327067D01*
X329921Y302756D02*
X339370D01*
X329921Y307480D02*
X339370D01*
X329921Y302756D02*
Y307480D01*
X339370Y302756D02*
Y307480D01*
X329331Y278543D02*
X339961D01*
X329331Y284449D02*
X339961D01*
X329331Y278543D02*
Y284449D01*
X339961Y278543D02*
Y284449D01*
X329331Y286417D02*
X339961D01*
X329331Y292323D02*
X339961D01*
X329331Y286417D02*
Y292323D01*
X339961Y286417D02*
Y292323D01*
X329331Y300197D02*
X339961D01*
X329331Y294291D02*
X339961D01*
Y300197D01*
X329331Y294291D02*
Y300197D01*
X329331Y310039D02*
Y315945D01*
X339961Y310039D02*
Y315945D01*
X329331Y310039D02*
X339961D01*
X329331Y315945D02*
X339961D01*
M02*
